<svg width="377.325" height="96.191" xmlns="http://www.w3.org/2000/svg">
  <path d="M170.964 10.713h-7.21L92 57.566l34.527 38.625h44.437z" fill="#f38f00"/>
  <path d="M377.325 86.672h-3.14V69.508h3.14zm-5.803 0h-3.096V74.588h3.096zm-3.625-15.47c0-1.156.943-2.056 2.081-2.056 1.111 0 2.029.9 2.029 2.055 0 1.094-.918 2.029-2.029 2.029-1.138 0-2.081-.935-2.081-2.029m-7.762 15.594c-3.36 0-6.121-2.584-6.121-6.139 0-3.598 2.858-6.191 6.244-6.191 2.752 0 5.098 1.72 5.778 4.551h-3.29c-.512-.997-1.403-1.623-2.567-1.623-1.693 0-3.043 1.35-3.043 3.237 0 1.888 1.35 3.237 3.043 3.237 1.094 0 1.94-.556 2.47-1.446h3.307c-.767 2.875-3.263 4.374-5.821 4.374m-8.203-6.668v6.554h-3.21v-5.83c0-.415.29-3.458-2.029-3.581-1.138-.07-3.166.555-3.166 3.722v5.689h-3.193V74.588h2.46l.415 1.473h.406c.512-.608 1.65-1.596 3.678-1.596 3.122 0 4.64 2.328 4.64 5.662m-14.457-5.539v12.093h-2.416l-.433-1.359h-.317c-.485.609-1.552 1.473-3.528 1.473-3.22 0-4.86-2.267-4.86-5.653v-6.554h3.29v5.822c0 1.499.115 3.58 2.196 3.58 1.067 0 2.805-.555 2.805-3.722v-5.68Zm-16.802 6.042c0-1.887-1.111-3.36-2.955-3.36-1.834 0-3.069 1.473-3.069 3.36 0 1.888 1.235 3.36 3.07 3.36 1.843 0 2.954-1.472 2.954-3.36m-9.19.026c0-3.872 2.998-6.191 6.235-6.191 3.264 0 6.122 2.346 6.122 6.139 0 3.845-2.955 6.191-6.219 6.191-3.28 0-6.138-2.346-6.138-6.139m-1.332.944c-.962 3.237-3.67 5.195-6.942 5.195-4.418 0-7.638-3.625-7.638-8.582 0-4.957 3.193-8.582 7.62-8.582 3.238 0 5.998 1.958 6.96 5.195H306.5c-.626-1.35-1.764-2.002-3.263-2.002-2.752 0-4.33 2.25-4.33 5.39 0 3.14 1.596 5.388 4.383 5.388 1.5 0 2.584-.652 3.21-2.002zm-22.288-1.473v6.554h-3.246v-5.83c0-1.182.194-3.581-1.985-3.581-1.058 0-3.113.555-3.113 3.722v5.689h-3.237V69.508h3.07v6.342h.405c.582-.609 1.693-1.385 3.484-1.385 3.122 0 4.622 2.328 4.622 5.662m-19.422 6.668c-3.36 0-6.112-2.584-6.112-6.139 0-3.598 2.848-6.191 6.235-6.191 2.752 0 5.098 1.72 5.777 4.551h-3.29c-.502-.997-1.402-1.623-2.557-1.623-1.694 0-3.052 1.35-3.052 3.237 0 1.888 1.358 3.237 3.052 3.237 1.085 0 1.931-.556 2.46-1.447h3.317c-.776 2.876-3.264 4.375-5.83 4.375m-6.845-12.33v3.096a6.296 6.296 0 0 0-1.058-.097c-1.693 0-3.457.873-3.457 3.095v6.113h-3.22V74.588h2.47l.432 1.332h.388c.53-.538 1.72-1.455 3.696-1.455zM247.671 81.6v-.247c-2.197.247-4.375.512-4.375 1.773 0 1.835 4.18 1.685 4.375-1.526m4.4 2.752v2.32h-.722c-1.403 0-2.39-.503-2.805-1.544-.723.988-1.932 1.667-3.82 1.667-2.733 0-4.471-1.402-4.471-3.58 0-3.767 5.15-4.102 7.47-4.226-.052-1.402-.82-1.913-2.055-1.913-1.72 0-1.843 1.04-1.843 1.04h-3.016c.211-2.152 1.984-3.651 4.93-3.651 2.875 0 4.913 1.429 4.913 4.939v3.21c0 1.403.503 1.738 1.42 1.738m-22.05-5.239h5.442c-.362-1.429-1.35-2.011-2.567-2.011-1.323 0-2.39.75-2.875 2.011m8.635 2.443h-8.83c.362 1.835 1.862 2.505 3.167 2.505 1.65 0 2.346-1.014 2.346-1.014h3.052c-.917 2.416-3.122 3.748-5.495 3.748-3.263 0-6.112-2.487-6.112-6.262 0-3.749 2.831-6.068 6.015-6.068 3.096 0 6.245 2.152 5.857 7.091m-18.064-4.525c-1.014 0-1.446.503-1.446 1.015 0 .82 1.084 1.067 1.808 1.208 2.152.459 4.33 1.111 4.33 3.678 0 2.487-2.055 3.863-4.55 3.863-2.78 0-4.931-1.693-5.072-4.251h2.972c.07.723.556 1.667 2.029 1.667 1.234 0 1.526-.653 1.526-1.164 0-.891-.847-1.156-1.667-1.35-1.43-.317-4.499-.9-4.499-3.651 0-2.373 2.276-3.581 4.622-3.581 2.708 0 4.49 1.65 4.64 3.678h-2.973c-.097-.415-.485-1.112-1.72-1.112m-15.232 2.082h5.442c-.362-1.429-1.358-2.011-2.567-2.011-1.332 0-2.39.75-2.875 2.011m8.635 2.443h-8.83c.362 1.835 1.862 2.505 3.167 2.505 1.65 0 2.346-1.014 2.346-1.014h3.043c-.917 2.416-3.113 3.748-5.486 3.748-3.263 0-6.112-2.487-6.112-6.262 0-3.749 2.822-6.068 6.015-6.068 3.096 0 6.236 2.152 5.857 7.091m-21.548-4.092h2.664c1.376 0 2.293-1.059 2.293-2.461 0-1.403-.944-2.232-2.293-2.232h-2.664zm5.61 9.208-3.599-6.21h-2.01v6.21h-3.07V69.755h5.971c2.778 0 5.248 1.86 5.248 5.195 0 2.32-1.305 4.084-3.052 4.93l4.093 6.792zM306.94 52.265c-1.023 0-1.455.503-1.455 1.014 0 .82 1.085 1.058 1.817 1.208 2.152.459 4.322 1.112 4.322 3.67 0 2.496-2.055 3.872-4.543 3.872-2.778 0-4.93-1.694-5.08-4.26h2.981c.07.732.556 1.675 2.029 1.675 1.235 0 1.526-.652 1.526-1.164 0-.89-.847-1.155-1.676-1.35-1.42-.317-4.498-.9-4.498-3.65 0-2.374 2.275-3.582 4.621-3.582 2.708 0 4.499 1.64 4.64 3.678h-2.973c-.097-.414-.485-1.111-1.71-1.111m-15.233 2.072h5.433c-.361-1.428-1.35-2.002-2.558-2.002-1.331 0-2.399.75-2.875 2.002m8.626 2.444h-8.82c.362 1.834 1.861 2.513 3.166 2.513 1.641 0 2.338-1.014 2.338-1.014h3.051c-.917 2.417-3.113 3.749-5.486 3.749-3.263 0-6.12-2.488-6.12-6.263 0-3.748 2.83-6.068 6.023-6.068 3.096 0 6.236 2.152 5.848 7.083m-14.12 5.124h-3.088V49.813h3.087zm-3.626-15.47c0-1.165.944-2.055 2.082-2.055a2.03 2.03 0 0 1 2.028 2.055c0 1.085-.917 2.028-2.028 2.028-1.138 0-2.082-.943-2.082-2.028m-.794 14.58s-1.023 1.014-2.884 1.014c-2.32 0-4.322-1.57-4.322-4.014v-5.61h-2.416v-2.372h1.208c.82 0 1.376-.555 1.376-1.42v-2.416h2.928v3.625h3.043v2.584h-3.043v5.415c0 .82.67 1.447 1.544 1.447.723 0 1.402-.406 1.402-.406zm-11.342.89h-3.096V49.813h3.096zm-3.625-15.47c0-1.165.943-2.055 2.072-2.055 1.12 0 2.038.89 2.038 2.055 0 1.085-.917 2.028-2.038 2.028-1.129 0-2.072-.943-2.072-2.028m-2.011 8.917v6.553h-3.22v-5.821c0-.415.292-3.458-2.028-3.581-1.138-.07-3.167.556-3.167 3.722v5.68h-3.192V49.822h2.47l.405 1.473h.414c.512-.609 1.641-1.597 3.678-1.597 3.114 0 4.64 2.32 4.64 5.654m-17.8 1.482v-.247c-2.195.247-4.374.511-4.374 1.764 0 1.843 4.18 1.693 4.375-1.517m4.401 2.751v2.32h-.723c-1.402 0-2.39-.503-2.805-1.543-.723.987-1.931 1.667-3.819 1.667-2.734 0-4.472-1.403-4.472-3.581 0-3.767 5.151-4.11 7.47-4.234-.052-1.394-.82-1.905-2.054-1.905-1.72 0-1.844 1.04-1.844 1.04h-3.016c.212-2.151 1.984-3.65 4.93-3.65 2.876 0 4.913 1.428 4.913 4.93v3.219c0 1.402.503 1.737 1.42 1.737m-13.9-4.233v6.553h-3.22v-5.821c0-1.667.168-3.775-2.055-3.581-.582.044-2.178.317-2.178 3.722v5.68h-3.184v-5.821c0-1.667.167-3.775-2.055-3.581-.582.044-2.179.317-2.179 3.722v5.68h-3.193V49.822h2.47l.362 1.305h.388c.458-.609 1.428-1.402 2.919-1.429 1.358-.026 2.514.609 3.316 1.667h.362c.609-.75 1.72-1.667 3.678-1.693 3.14-.027 4.569 2.32 4.569 5.68m-20.913-5.53v12.083h-2.425l-.432-1.35h-.318c-.476.6-1.543 1.474-3.528 1.474-3.21 0-4.86-2.276-4.86-5.654v-6.553h3.29v5.82c0 1.5.124 3.582 2.196 3.582 1.068 0 2.805-.556 2.805-3.722v-5.68zm-14.032-4.834v16.917h-3.255v-7.03h-6.677v7.03h-3.263V44.988h3.263v6.81h6.677v-6.81zm76.39-13.891c0-2.011-1.094-3.193-2.664-3.193-1.472 0-2.945 1.067-2.945 3.193 0 2.125 1.473 3.184 2.945 3.184 1.57 0 2.664-1.182 2.664-3.184m3.017-11.122v17.163h-2.364l-.344-1.164h-.362c-.75.83-1.764 1.288-3.07 1.288-3.069 0-5.635-2.514-5.635-6.165 0-3.652 2.566-6.166 5.636-6.166 1.261 0 2.346.433 3.122 1.306v-6.262zm-13.848 10.61v6.553h-3.22v-5.83c0-.405.292-3.457-2.028-3.572-1.138-.08-3.166.556-3.166 3.722v5.68h-3.193V25.046h2.46l.415 1.482h.406c.512-.609 1.65-1.597 3.678-1.597 3.122 0 4.648 2.32 4.648 5.654m-17.799 1.473v-.238c-2.196.238-4.374.511-4.374 1.764 0 1.834 4.18 1.693 4.374-1.526m4.401 2.76v2.32h-.732c-1.393 0-2.39-.511-2.796-1.552-.732.997-1.94 1.676-3.819 1.676-2.734 0-4.48-1.403-4.48-3.581 0-3.775 5.15-4.11 7.47-4.234-.044-1.402-.82-1.905-2.055-1.905-1.71 0-1.834 1.04-1.834 1.04h-3.026c.22-2.151 1.985-3.65 4.94-3.65 2.875 0 4.904 1.42 4.904 4.93v3.22c0 1.402.511 1.737 1.428 1.737m-24.907-7.33c-1.015 0-1.447.512-1.447 1.015 0 .829 1.085 1.067 1.808 1.208 2.152.467 4.33 1.12 4.33 3.678 0 2.496-2.054 3.872-4.541 3.872-2.788 0-4.94-1.694-5.08-4.26h2.972c.07.732.555 1.667 2.028 1.667 1.235 0 1.526-.653 1.526-1.156 0-.9-.847-1.164-1.667-1.358-1.429-.309-4.498-.89-4.498-3.651 0-2.364 2.275-3.573 4.622-3.573 2.707 0 4.498 1.641 4.639 3.67h-2.972c-.098-.406-.486-1.112-1.72-1.112m-5.751 8.759s-1.023 1.014-2.875 1.014c-2.329 0-4.331-1.57-4.331-4.013v-5.61h-2.417v-2.372h1.209c.82 0 1.376-.556 1.376-1.43v-2.416h2.928v3.634h3.043v2.584h-3.043v5.416c0 .82.679 1.446 1.543 1.446.724 0 1.403-.406 1.403-.406zM213.123 24.93v3.087a6.553 6.553 0 0 0-1.068-.088c-1.693 0-3.457.865-3.457 3.087v6.121h-3.21V25.055h2.46l.441 1.323h.388c.53-.53 1.711-1.447 3.696-1.447zm-15.162 5.513-1.914-5.874h-.573l-1.914 5.874zm5.636 6.694h-3.484l-1.182-3.695h-6.333l-1.19 3.695h-3.484l5.706-16.925h4.26zM85.486 96.191H0V10.713h95z" fill="#1e1e5c"/>
  <path d="M66.103 53.452H52.71V39.147ZM54.425 80.055H42.74v4.67L34.52 73.95c6.255-1.159 9.493-4.397 9.493-10.032 0-1.389-.204-2.628-.593-3.733h11.005zm-35.05-19.87h9.12c3.743 0 5.264 1.45 5.264 3.733 0 2.282-1.521 3.786-5.264 3.786h-9.12Zm23.364-16.933v15.464c-2.123-3.583-7.007-5.246-14.244-5.264 6.459-.654 12.439-4.14 14.244-10.2m33.334-23.134h-9.97L52.71 34.388v-14.27H33.344v18.94c0 4.061-3 6.414-6.98 6.414-3.99 0-6.99-2.353-6.99-6.413V20.118h-9.97v19.09c0 8.547 6.9 13.448 14.686 14.244H9.404v33.335h9.97v-12.36h4.353l9.21 12.36h43.136v-6.733H64.387v-19.87h11.686v-8.793L61.786 36.767 76.073 22.18Zm0 0" fill="#fff"/>
  <path d="M163.754 10.713c1.212-3.388 2.176-6.962 2.902-10.713h-81.17v96.191h41.05L97.057 57.566c35.228-6.485 57.672-21.763 66.696-46.853" fill="#fdc200"/>
</svg>