<svg xmlns="http://www.w3.org/2000/svg" viewBox="0 0 800 800"><defs><style>.cls-1{fill:#e17c30;}.cls-2,.cls-3,.cls-4,.cls-5{font-size:200px;font-family:Avenir-Heavy, Avenir;}.cls-2{fill:#808285;stroke-width:16px;}.cls-2,.cls-3,.cls-4{stroke:#fff;}.cls-2,.cls-3{stroke-linejoin:round;}.cls-3,.cls-4,.cls-5{fill:#fec980;}.cls-3,.cls-5{stroke-width:15px;}.cls-4,.cls-5{stroke-linecap:square;stroke-miterlimit:10;}.cls-4{stroke-width:22px;}.cls-5{stroke:#fec980;}</style></defs><title>ABC_CCID Logos2</title><g id="CCID_BW-sq" data-name="CCID BW-sq"><path class="cls-1" d="M234.46,317.11a3.09,3.09,0,0,0,2.46.4c-2.52-22.34-4.31-70.76-30.58-77.89-13.51-3.67-27.64,1.68-41.37,3.59-14.67,2-29.63,3.31-43.36,8.28-13.92,5-25.76,12.06-38.3,18.47-11.83,6-23.59,22.15-36.56,23.48-15.22,1.57-28.52-6-39,10.11-8.57,13.14-13.11,28.27,3.3,36C21.31,344.39,42,345.21,49.81,335c3.94-5.15,3.67-12.18,7.85-16.59,4.32-4.56,13.52-10.1,19-13.71s10.92-5.54,16.82-8.6c15.16-7.86,31.46-17.52,49-19.94,17.25-2.38,27.74-4,41.42,7,14.39,11.57,19.77,27.57,24.86,44a106.18,106.18,0,0,1,4.07,17.12"/><path class="cls-1" d="M528.18,340.42c-5.25,16.91-25.81,30-41.63,37.33-19.83,9.17-35.46,5.75-54.75-4-4.63-2.33-11.52-4.11-15.71-6.69-3.89-2.39-6.38-6.71-9.74-10.11-8-8.06-17.26-14.1-26-21.14a167.41,167.41,0,0,0-44.43-25.44c-13.9-5.39-29.13-4.49-44.07-6.51-14.19-1.92-34-2-47.62,3.61-14.88,6.15-24.95,24.33-32.14,37.19-8.5,15.19-9.36,25.74-7,42.63,1.85,13.15,5,31.26,17,39.26,21.59,14.3,55.31,10.67,79.44,4.81,16-3.89,32.39-7.91,48.92-4,20.54,4.88,35.18,19.37,53.93,27,10.81,4.4,23.09,6.42,34.22,10,11.64,3.77,21.19,3.62,33.4,2.9,21.12-1.24,41.83-12.25,57.25-25.66,24.74-21.51,35-55.51,12.8-80.18a14.12,14.12,0,0,1-2.23-2.72"/><path class="cls-1" d="M182.29,272.88a206.26,206.26,0,0,0-32.16,21.28c-10.4,8.33-23.64,13.83-33.79,22.28-9.67,8.05-17.92,17.44-27.26,25.63-6.19,5.43-14.59,10.39-19,17.34C56.5,355.07,29.77,354,24.52,371.31,20,386.43,22.15,400.57,39.1,407.45c9.33,3.79,23,3.52,31.12-3,7.34-5.91,8.13-13.88,11.51-21.69,7.39-17.09,30.77-30.06,45.41-43.15,12-10.7,27-18.22,40.07-27.82,9.79-7.18,21.95-17.22,32.79-22.73"/><path class="cls-1" d="M200.83,303.61c-15.64,11.2-24.14,29.37-36.93,43.17-11,11.89-21.42,24.12-32.17,36.3-8,9-16.79,18.36-25.37,26.81-7.75,7.64-11.62,7-21.71,9.21-13.46,3-23.79,16.39-22.29,29.47,2.06,17.91,34,30.69,47.85,16.7,7.46-7.54,18.57-27.23,3.78-33.36,21.48-19,37.54-43.41,58-63.2,8.34-8.08,16.16-15.68,24.84-23.25,6-5.2,13.06-10.37,18.41-16"/><path class="cls-1" d="M177.37,506.4c-17.83,6.94-29.49,14.75-35.69,33-5.48,16.16,6.43,32.23,22,39.37,30.88,14.16,80.71-8.59,58.05-43.31-8.62-13.2-27.91-26-44.37-29.1"/><path class="cls-1" d="M286.29,534.5c-9.08-3.77-13.13-.2-21.9,2.76-17.34,5.86-26.44,31.41-20,47.29,7.42,18.24,30,19,46.64,17.26,27.71-3,44.56-21.7,31.71-48.07-4.66-9.56-14.53-16.63-24.78-20.16-6.51-2.24-20.36-4.16-25.28,1.78"/><path class="cls-1" d="M194.2,755.19c1.27-9.21-23.54-28.27-31.8-34.86-11-8.76-22.57-20.49-34.24-8.07-23.48,25,22.27,49.11,46.31,48.78,9.15-.13,18.32-1.73,19-11.11"/><path class="cls-1" d="M314.29,761.38c-9.57,2.81-26.47-7.3-34.62-12.83-7.93-5.38-27.38-24.72-37.91-19.25-12,6.21-4.25,26,2.06,33.52,8.3,9.9,26.08,19.11,38.31,19.2,9.64.07,33.64-7.1,33.54-20.83"/><path class="cls-1" d="M526.31,477.27c-2.77,15.46-32,19.31-44.84,20.16-17.89,1.19-34.25-4.42-52.2-2.68-8.18.79-14.64-.83-15.83,8.95-.84,6.89,1.59,16.92,5.22,22.63,8.56,13.51,33.21,23.46,49.26,25.77,21.08,3,40.25-6.51,54.46-20.68,5-4.94,10.2-9.44,13.51-15.4,2.38-4.3,3.45-9.05,7.22-12.68"/><path class="cls-1" d="M572.28,444.09c-8.84-.45-19.27.1-27,4.22-5.76,3.06-9.29,7.5-13,12.75-9.55,13.38-7.75,19.41,1,32.09,8.19,11.82,14.51,24.49,31,25.63s33.9-8.39,44-20c10.65-12.24,14.35-29.77-.09-40.64-14.1-10.61-25.28-12.31-41.37-14.95"/><path class="cls-1" d="M670.17,682.12c4.27.7,17.16-6.85,21.73-9.24,6.79-3.55,11.75-11.64,14.43-18.88,6.23-16.82-7.86-38.47-23.5-45.84-28.33-13.35-55.83,15.11-59.21,39.78-2.68,19.59,18.84,28.86,35.85,34.16,14.57,4.54,21.42-1.14,32.42-9.18"/><path class="cls-1" d="M759.17,514.12c-29.3-8.84-75,14.23-66.14,49.72,4.91,19.61,26.8,35.21,48.24,33,14.7-1.49,22.29-10.43,33.8-17.84,11-7.09,20.35-13.83,21.27-27.73.7-10.45-7.84-20.54-15.88-26.77-6.2-4.8-14.68-6-20.38-10.18"/><path class="cls-1" d="M661.42,409.42c3.56-1,14.66-9,18.72-12.29,5.33-4.31,10.62-9.42,13.44-15.54,6-13.08,8.14-36.64-7.4-43.93-20.59-9.66-47.28-4.34-61.83,12.18C612.73,363,593.79,382,609.62,398.75c6.22,6.57,47.13,15.36,51.8,10.66"/><path class="cls-1" d="M479.24,85.39C454.94,90,429,76.76,422.09,53.47c-2.31-7.76-2.48-13.78-12.79-15.31-10.9-1.62-17.92,5.75-20.76,14.83-4.18,13.4-3.38,30.39,3.9,42.43,7.72,12.76,22.64,27.59,38.92,29.52,5.76.68,26.7-.51,28.93-4.63"/><path class="cls-1" d="M488.66,76.38c-2-14.52-6.46-26-21.71-33.26C458.3,39,447.46,40.4,439.4,35.89c-14.13-7.9-9.95-26.62,4.48-32.54,15.92-6.53,47.43-5.52,58.78,7.34C513.49,23,515.82,47.28,518,63l.42,3"/><path class="cls-1" d="M552.71,169.54c23.81-4.79,32-26.28,36-46.53,4.43-22.29-17.19-42.54-36.81-51.09-8.75-3.81-17.29-7.45-27-8.09-9.19-.61-16.52,3.8-25.14,7-15.62,5.78-29.6,19.68-36.89,34.33-3.9,7.83-7.92,25.14-2.79,32.86,7.23,10.86,20.83,13.49,32.59,18.29,10.29,4.21,19.89,10.42,31.1,12.1,12.86,1.93,24.24,1,37.7-.85"/><path class="cls-1" d="M703.63,249c14.69,3.85,36.65-13.56,44.43-24.48,6.39-9,5.55-19.62,3-29.8-6.17-25-31.35-37.19-56.1-42.24-17.6-3.59-31.25.5-38.89,15.63-6.2,12.28-18.6,33.07-10.78,46.68,3.75,6.53,13.18,12.23,18.9,17.43,6,5.39,10.81,10.27,18.41,13.41,10.88,4.49,21.33,4.09,33.19,2.43"/><path class="cls-1" d="M173.45,520.89c7.06-14.89,16.75-27.77,22-43.37s9.68-30.46,10.54-46.81c.43-8.1-2.11-20.35,5.79-25.95,7.74-5.49,21.6-3.84,29.43-.13,19.68,9.34,6.38,33.67,6.94,49.81.4,11.36,4.24,24.46,0,35.37-2.13,5.47-7,9.7-9.47,15-2.53,5.53-3,11.78-5.41,17.47-12.79,30.75-53.68,30-57-3.8"/><path class="cls-1" d="M186.34,559.13c-7.07-.13-13.93-1.07-21,1.35-4.36,1.5-6.61,4.41-10.41,6.58.71,9.15,4.9,17.48,5.21,26.55.34,10.08.1,20,0,30.2C160,648.17,155.9,673,152.08,697c-1.34,8.41-8.11,13.71-5.91,22.43,1.46,5.75,2.9,9.52,9,11.1,7.88,2,7.48-1.93,8.88-8.21.94-4.23,3-7.52,5.18-11.65,2.66-5,3.18-10.17,4.61-15.75,3.49-13.61,11.65-26.43,14.35-40.3,3.64-18.75,11.51-40.42,7.88-59.67-2.25-11.88-5.06-25.85-11.3-35.57"/><path class="cls-1" d="M281.17,579.07c-6.1,1-12.4-1.51-18.82.68-4.48,1.53-6.8,4.46-7.82,8.84-1.62,7,1.14,16.66,1.39,24,.65,19.37.19,38.92-.22,58.46-.37,17.77-3.55,35.2-5.71,52.82-1.18,9.56-5.21,15.88,5.23,22.34,10.93,6.75,14.32-2.64,19.68-9.75,11.91-15.83,18.88-34.74,21.48-53.43,1.43-10.28,4.37-20,3.5-30.43-.94-11.39-3.08-22.92-4.8-34.2-1.16-7.62-2.19-16.41-5.9-23.22-2.17-4-5.34-13.92-9.56-15.84"/><path class="cls-1" d="M269.54,428.53c18-2,32,13.15,44.28,22.63C320.07,456,327.3,462.4,330,469.63c3.33,9,2.09,19.66,5,28.88,3.71,11.89-1.84,24.47-5.39,36.47-1.84,6.21-4.36,13.42-9.31,18.13s-12.61,6.48-18.46,9.82c-3.34-2.41-8.67-4.72-13-4.95-2.73-.14-6.27,1.5-8.87.68-4.66-1.47-6.93-7.59-9.84-10.82,7.36-.1,17.12-9.64,21.1-14.83,7.34-9.55,5.92-20.61,4.92-31.63-1.13-12.41-6-21.28-12.44-31.64-7.73-12.53-14.31-26-22-38.52-.93-1.51-1.79-3.16-2.79-4.53a17.79,17.79,0,0,1,16.65,3"/><path class="cls-1" d="M525,143.64c-4.87-8.46-13.2-14.65-23.65-13.73-4.11.36-13.94,2.73-16.85,5-7.37,5.7-1.39,21.26-2.84,29.26-2.46,13.55-12.08,24.08-19,35.86-5.87,10-11.35,22-13.2,33.42-4.6,28.32,7.79,58.49,13.29,85.84,3.21,15.94,6.58,31.88,8.89,48.33,1,7.2,1.38,14.35,2.31,21.44,1.42,10.94,10,10.17,20.36,8.92,8-1,12.2-4.73,18.77-8.69,6.12-3.68,13-5.31,18.68-8.86,4.27-2.67,7.93-6.39,12.61-8.48,5-2.23,10.82-2.71,15.47-5.94,12.91-9,10-27.27,6.83-40.1-3.59-14.37-6.59-27.6-11.26-41.42C546.09,256.8,540,228.62,540,199.14c0-12.2,1.56-27.32-3.54-38.79-1.83-4.13-7.82-16.17-10.85-17.46"/><path class="cls-1" d="M647.4,204.9c10.32-1.19,36-2.33,42.5-11.77,7.61-11-3.52-28.57-13.75-33-9.43-4.08-19.06-7.08-28.82-10.68-20.57-7.58-36.65-24.2-57.66-31.16-12.71-4.21-29.51-1.51-35.67,11.37-5.38,11.25-4.57,21.47,6.18,28.08,20.37,12.52,38.28,27.24,61.17,35.94,9.94,3.78,18.7,9.13,28.8,12.09a4,4,0,0,0-2-1"/><path class="cls-1" d="M592.11,483.61c-7.06,4.82-21.28-1-28.48,6.58-5.49,5.81-3,12,1.63,16.82,9,9.3,15.43,19.71,23.19,29.44,10.67,13.35,20.52,24.88,25.47,41.62,4,13.45,14.09,25.43,21.23,37.62,4,6.86,8.84,15.08,18,17,8.26,1.71,16.09-1.41,16.72-9.41.66-8.46-6.2-14.21-10.08-20.82s-5.28-14.25-7.75-21.18c-5.71-15.95-9.83-32.35-16.68-48.05-6.31-14.49-15-33.84-28.37-43.67-4.93-3.64-13.48-1.46-16.91-5.61"/><path class="cls-1" d="M647.36,396c7.49,10.26,19.05,20.5,24.74,32.52,5.25,11.08,7.29,23.11,14,34.06,7,11.39,11.7,23.74,16.44,36.28,3.27,8.67,8,16.41,10.54,25.19,1.7,5.9,4.74,10.36,8.39,15.25,5.21.08,9.29-2.94,13.95-4.67,3.22-1.19,10.53-1.36,12.83-3.68,3.26-3.29.61-12.3-.21-16.22-2.65-12.8-10.22-25.42-15.82-37.71-5.52-12.11-9.22-23.72-16.86-35.44-4.18-6.41-9.19-12.26-13.19-18.08-6.54-9.5-9.29-20.85-18.54-28.53-7-5.8-15.4-8.53-24.8-6.48-6.65,1.45-6,2.89-9.37,7.86"/><text class="cls-2" transform="translate(401.41 788.14)">C</text><text class="cls-3" transform="translate(566.03 786.71)">I</text><text class="cls-4" transform="translate(647.37 790.42)">D</text><text class="cls-5" transform="translate(569.03 790.42)">I</text><text class="cls-5" transform="translate(405.29 788.42)">C</text><text class="cls-4" transform="translate(261.27 788.42)">C</text><text class="cls-5" transform="translate(647.37 790.42)">D</text><text class="cls-5" transform="translate(261.27 788.42)">C</text></g></svg>