<?xml version="1.0" encoding="UTF-8" standalone="no"?>
<!-- Created with Inkscape (http://www.inkscape.org/) -->

<svg
   width="27.811853mm"
   height="7.7046423mm"
   viewBox="0 0 27.811853 7.7046423"
   version="1.1"
   id="svg5"
   xmlns="http://www.w3.org/2000/svg"
   xmlns:svg="http://www.w3.org/2000/svg">
  <defs
     id="defs2" />
  <g
     id="layer1"
     transform="translate(-21.564596,-16.471297)">
    <text
       xml:space="preserve"
       style="font-style:normal;font-variant:normal;font-weight:normal;font-stretch:normal;font-size:10.5833px;line-height:1.25;font-family:Montserrat;-inkscape-font-specification:Montserrat;fill:#ffffff;fill-opacity:1;stroke:none;stroke-width:0.264583"
       x="9.2123413"
       y="26.118767"
       id="text113"><tspan
         id="tspan111"
         style="font-style:normal;font-variant:normal;font-weight:normal;font-stretch:normal;font-family:Montserrat;-inkscape-font-specification:Montserrat;fill:#ffffff;stroke-width:0.264583"
         x="9.2123413"
         y="26.118767" /></text>
    <g
       aria-label="OCOI"
       id="text117"
       style="font-size:10.5833px;line-height:1.25;font-family:Montserrat;-inkscape-font-specification:Montserrat;stroke-width:0.264583">
      <path
         d="m 25.681499,24.175939 q -0.888997,0 -1.640411,-0.285749 -0.751415,-0.285749 -1.312329,-0.804331 -0.550332,-0.529165 -0.857248,-1.227663 -0.306915,-0.698497 -0.306915,-1.534578 0,-0.836081 0.306915,-1.534578 0.306916,-0.698498 0.857248,-1.21708 0.560914,-0.529165 1.312329,-0.814914 0.751414,-0.285749 1.640411,-0.285749 0.899581,0 1.640412,0.285749 0.751414,0.285749 1.301745,0.814914 0.550332,0.518582 0.857248,1.21708 0.317499,0.698497 0.317499,1.534578 0,0.836081 -0.317499,1.545162 -0.306916,0.698498 -0.857248,1.217079 -0.550331,0.518582 -1.301745,0.804331 -0.740831,0.285749 -1.640412,0.285749 z m 0,-1.735661 q 0.423332,0 0.783164,-0.148166 0.370416,-0.148166 0.634998,-0.423332 0.275166,-0.285749 0.423332,-0.677331 0.15875,-0.391582 0.15875,-0.867831 0,-0.486832 -0.15875,-0.867831 -0.148166,-0.391582 -0.423332,-0.666747 -0.264582,-0.28575 -0.634998,-0.433916 -0.359832,-0.148166 -0.783164,-0.148166 -0.423332,0 -0.793747,0.148166 -0.359833,0.148166 -0.634998,0.433916 -0.264583,0.275165 -0.423332,0.666747 -0.148166,0.380999 -0.148166,0.867831 0,0.476249 0.148166,0.867831 0.158749,0.391582 0.423332,0.677331 0.275165,0.275166 0.634998,0.423332 0.370415,0.148166 0.793747,0.148166 z"
         style="font-weight:800;-inkscape-font-specification:'Montserrat Ultra-Bold';fill:#ffffff"
         id="path333" />
      <path
         d="m 34.592645,24.175939 q -0.878414,0 -1.629828,-0.275166 -0.740831,-0.285749 -1.291163,-0.80433 -0.539748,-0.518582 -0.846664,-1.21708 -0.306916,-0.709081 -0.306916,-1.555745 0,-0.846664 0.306916,-1.545162 0.306916,-0.709081 0.846664,-1.227662 0.550332,-0.518582 1.291163,-0.793748 0.751414,-0.285749 1.629828,-0.285749 1.02658,0 1.830911,0.359832 0.814914,0.359832 1.354662,1.037164 l -1.333496,1.206496 q -0.359832,-0.423332 -0.793747,-0.645582 -0.423332,-0.222249 -0.952497,-0.222249 -0.455082,0 -0.836081,0.148166 -0.380999,0.148166 -0.656164,0.433916 -0.264583,0.275165 -0.423332,0.666747 -0.148167,0.391583 -0.148167,0.867831 0,0.476249 0.148167,0.867831 0.158749,0.391582 0.423332,0.677331 0.275165,0.275166 0.656164,0.423332 0.380999,0.148166 0.836081,0.148166 0.529165,0 0.952497,-0.222249 0.433915,-0.22225 0.793747,-0.645582 l 1.333496,1.206497 q -0.539748,0.666747 -1.354662,1.037163 -0.804331,0.359832 -1.830911,0.359832 z"
         style="font-weight:800;-inkscape-font-specification:'Montserrat Ultra-Bold';fill:#ffffff"
         id="path335" />
      <path
         d="m 42.063381,24.175939 q -0.888997,0 -1.640412,-0.285749 -0.751414,-0.285749 -1.312329,-0.804331 -0.550331,-0.529165 -0.857247,-1.227663 -0.306916,-0.698497 -0.306916,-1.534578 0,-0.836081 0.306916,-1.534578 0.306916,-0.698498 0.857247,-1.21708 0.560915,-0.529165 1.312329,-0.814914 0.751415,-0.285749 1.640412,-0.285749 0.89958,0 1.640411,0.285749 0.751415,0.285749 1.301746,0.814914 0.550332,0.518582 0.857247,1.21708 0.317499,0.698497 0.317499,1.534578 0,0.836081 -0.317499,1.545162 -0.306915,0.698498 -0.857247,1.217079 -0.550331,0.518582 -1.301746,0.804331 -0.740831,0.285749 -1.640411,0.285749 z m 0,-1.735661 q 0.423332,0 0.783164,-0.148166 0.370416,-0.148166 0.634998,-0.423332 0.275166,-0.285749 0.423332,-0.677331 0.15875,-0.391582 0.15875,-0.867831 0,-0.486832 -0.15875,-0.867831 -0.148166,-0.391582 -0.423332,-0.666747 -0.264582,-0.28575 -0.634998,-0.433916 -0.359832,-0.148166 -0.783164,-0.148166 -0.423332,0 -0.793748,0.148166 -0.359832,0.148166 -0.634998,0.433916 -0.264582,0.275165 -0.423332,0.666747 -0.148166,0.380999 -0.148166,0.867831 0,0.476249 0.148166,0.867831 0.15875,0.391582 0.423332,0.677331 0.275166,0.275166 0.634998,0.423332 0.370416,0.148166 0.793748,0.148166 z"
         style="font-weight:800;-inkscape-font-specification:'Montserrat Ultra-Bold';fill:#ffffff"
         id="path337" />
      <path
         d="m 47.280956,24.027773 v -7.40831 h 2.095493 v 7.40831 z"
         style="font-weight:800;-inkscape-font-specification:'Montserrat Ultra-Bold';fill:#ffffff"
         id="path339" />
    </g>
  </g>
</svg>
