<?xml version="1.0" encoding="utf-8"?>
<!-- Generator: Adobe Illustrator 22.1.0, SVG Export Plug-In . SVG Version: 6.00 Build 0)  -->
<svg version="1.1" id="Layer_1" xmlns="http://www.w3.org/2000/svg" xmlns:xlink="http://www.w3.org/1999/xlink" x="0px" y="0px"
	 viewBox="0 0 438.9 87.8" style="enable-background:new 0 0 438.9 87.8;" xml:space="preserve">
<g>
	<path d="M29.3,63.1c0,12.3-7.7,20.5-23.1,24.6l-5.1-11c4.8-1.4,8.2-2.8,10.4-4.3c3.4-2.4,5-5.5,5-9.3c0-2.9-1.4-6.5-4.3-10.7
		C9.6,48.5,7,44.6,4.4,40.7c-2.9-5-4.3-9.9-4.3-14.7c0-6.2,2.5-11.7,7.6-16.7C12.4,4.6,18,1.5,24.7,0l3.8,11.8
		C18.1,14.6,13,19.3,13,25.9c0,3.5,1.4,7.5,4.3,11.8c2.6,3.8,5.2,7.6,7.8,11.4C27.9,54,29.3,58.6,29.3,63.1L29.3,63.1z"/>
	<path d="M61.2,85.1c-3.6,1.1-6.2,1.7-7.8,1.7c-7.2,0-12.8-3.4-16.8-10.2c-4-6.8-6-16.4-6-28.7c0-12.3,2-21.9,6-28.7
		c4-6.8,9.6-10.2,16.8-10.2c1.6,0,4.2,0.6,7.8,1.7L58,19.7c-1.6-0.6-3.1-0.8-4.5-0.8c-7.6,0-11.4,9.7-11.4,29c0,19.3,3.8,29,11.4,29
		c1.5,0,3-0.3,4.5-0.8L61.2,85.1z"/>
	<path d="M100.2,85.9H88.7V55.3H77.6v30.7H66.1V55.3h-3.9v-9.9h3.9V9.8h11.5v35.6h11.1V9.8h11.5C100.2,9.8,100.2,85.9,100.2,85.9z"
		/>
	<path d="M140.4,47.8c0,25.9-5.8,38.9-17.5,38.9c-11.7,0-17.6-13-17.6-38.9c0-12.6,1.1-21.8,3.3-27.8c2.7-7.4,7.5-11.1,14.3-11.1
		c6.6,0,11.3,3.7,14.1,11.1C139.3,26.1,140.4,35.4,140.4,47.8L140.4,47.8z M129,47.8c0-19.3-2.1-29-6.2-29c-4.1,0-6.2,9.7-6.2,29
		c0,19.3,2,29,6.2,29C127,76.8,129,67.2,129,47.8L129,47.8z"/>
	<path d="M169.4,85.9h-23.1V9.8h11.5V76h11.6V85.9z"/>
	<path d="M213.2,85.9h-11.9l-1.3-6.8H189l-1.3,6.8h-11.9l1.5-6.8h-4.5l2.3-9.9h4.4l13.5-61.1h3.3L213.2,85.9z M198,69.2l-3.5-18.9
		l-3.7,18.9H198z"/>
	<path d="M248.5,83.7l-11.2,3.4l-10.6-31.2v30h-11.5V9.8h11.5c6.7,0,11.8,2.5,15.3,7.4c3.2,4.5,4.7,10.5,4.7,18.1
		c0,8.1-2.5,14.7-7.6,20L248.5,83.7z M234.8,35.3c0-10.4-2.7-15.6-8.1-15.6v32.6c2.4,0,4.4-1.6,5.9-4.7
		C234.1,44.4,234.8,40.3,234.8,35.3L234.8,35.3z"/>
	<path d="M276,64.9c0,10.8-6.9,18.1-20.6,21.8l-4.5-9.7c4.2-1.2,7.3-2.5,9.2-3.9c3-2,4.5-4.8,4.5-8.2c0-2.6-1.3-5.8-3.8-9.5
		c-2.3-3.5-4.7-6.9-7-10.4c-2.5-4.5-3.8-8.8-3.8-13.1c0-5.5,2.2-10.5,6.7-14.9c4.2-4.1,9.2-6.9,15.1-8.2l3.4,10.5
		c-9.2,2.5-13.7,6.7-13.7,12.5c0,3.1,1.2,6.6,3.7,10.5c2.3,3.3,4.7,6.7,7,10.1C274.8,56.8,276,60.9,276,64.9L276,64.9z"/>
	<path d="M298.9,3.7l-12.2,29.8l-6.8-2l6.8-31.4L298.9,3.7z"/>
	<path d="M357.1,85.9h-26V0.5h12.8v74.3h13.2L357.1,85.9L357.1,85.9z"/>
	<path d="M401.6,85.9h-11.9l-1.3-6.8h-10.9l-1.3,6.8h-11.9l1.5-6.8h-4.5l2.3-9.9h4.4l13.5-61.1h3.3L401.6,85.9z M386.4,69.2
		l-3.5-18.9l-3.7,18.9H386.4z"/>
	<path d="M438.9,66.1c0,6.3-1.7,11.1-5,14.6c-3.5,3.5-8.6,5.3-15.3,5.3h-11.5V9.8h11.5c6.6,0,11.7,2,15.3,6c3.3,3.8,5,9.2,5,16
		c0,8.6-2.2,14.4-6.7,17.4C436.6,52.9,438.9,58.6,438.9,66.1L438.9,66.1z M427.8,31.8c0-8-3.1-12.1-9.2-12.1v25.6c3.2,0,5.5-1,7-3.1
		C427,40.2,427.8,36.7,427.8,31.8L427.8,31.8z M427.8,66.1c0-7.2-3.1-10.8-9.2-10.8V76C424.7,76,427.8,72.7,427.8,66.1L427.8,66.1z"
		/>
</g>
</svg>
