<?xml version="1.0" encoding="utf-8"?>
<!-- Generator: Adobe Illustrator 16.0.0, SVG Export Plug-In . SVG Version: 6.00 Build 0)  -->
<!DOCTYPE svg PUBLIC "-//W3C//DTD SVG 1.1//EN" "http://www.w3.org/Graphics/SVG/1.1/DTD/svg11.dtd">
<svg version="1.1" xmlns="http://www.w3.org/2000/svg" xmlns:xlink="http://www.w3.org/1999/xlink" x="0px" y="0px" width="518px"
	 height="236px" viewBox="0 0 518 236" enable-background="new 0 0 518 236" xml:space="preserve">
<g id="Background">
</g>
<g id="Guides">
</g>
<g id="Foreground">
</g>
<g id="Layer-2">
</g>
<g id="Layer-1">
	<g>
		<path fill-rule="evenodd" clip-rule="evenodd" d="M43.969,84.626c10.028,0,17.059-2.651,21.669-6.916
			c6.455-5.532,8.99-12.793,9.682-22.245c0.345-4.495,0.576-24.665,0.576-26.279s0-17.98,0.231-19.133
			c0.346-1.383,0.691-4.61,4.956-4.61h4.726c0.576,0,0.691-0.461,0.691-1.153V1.755c0-0.346-0.115-0.807-1.153-0.807
			c-1.037,0-4.726,0.346-12.678,0.346c-7.723,0-13.024-0.346-14.177-0.346c-0.692,0-0.807,0.23-0.807,0.807v2.766
			c0,0.576,0.115,0.922,0.807,0.922h5.071c2.997,0,4.841,2.075,5.187,5.071c0.346,2.881,0.577,9.566,0.577,18.326v24.666
			c0,8.529-1.499,15.445-5.994,20.286c-4.034,4.149-10.719,6.339-17.289,6.339c-6.685,0-14.062-2.075-18.326-8.298
			c-2.651-3.919-3.573-9.336-3.688-14.638c-0.115-3.688-0.576-18.327-0.576-24.435v-7.607c0-5.878,0.115-13.947,0.23-14.984
			c0.23-2.536,2.19-4.726,5.532-4.726h5.763c0.807,0,0.922-0.231,0.922-0.807V1.64c0-0.461-0.115-0.691-1.038-0.691
			c-1.268,0-6.8,0.346-15.79,0.346c-8.991,0-14.638-0.346-15.791-0.346c-0.922,0-1.038,0.23-1.038,0.922v2.536
			c0,0.807,0.115,1.038,0.807,1.038H8.47c3.573,0,4.38,1.844,4.38,5.878v27.432c0,15.099,0.461,22.821,1.844,28.008
			c1.844,7.261,5.878,12.333,13.716,15.444C32.213,83.819,37.976,84.626,43.969,84.626z"/>
		<path fill-rule="evenodd" clip-rule="evenodd" d="M136.143,44.886c0-5.134-0.251-13.023,0.375-18.784
			c0.25-1.753,0.876-2.63,4.007-2.63h1.252c0.501,0,0.751-0.375,0.751-0.876v-2.629c0-0.752-0.25-1.002-0.876-1.002
			c-0.877,0-5.26,0.375-7.89,0.375c-4.007,0-9.392-0.375-10.268-0.375c-0.626,0-0.877,0.25-0.877,0.626v3.005
			c0,0.626,0.25,0.876,0.877,0.876h2.128c2.129,0,4.007,0.751,4.633,2.254c0.626,1.502,1.002,8.766,1.002,11.771
			c0.25,4.007,0.375,7.89,0.375,15.027v8.265h-0.5c-1.503-1.628-13.149-16.279-15.403-18.909
			c-2.63-3.13-17.031-21.288-17.406-21.789c-0.501-0.751-1.252-1.002-3.006-1.002c-1.503,0-4.132,0.25-6.136,0.25
			c-1.378,0-3.381-0.125-5.009-0.25c-1.628,0-3.005-0.125-3.256-0.125c-0.501,0-0.751,0.375-0.751,0.751v3.006
			c0,0.5,0.25,0.751,0.751,0.751h1.127c3.506,0,6.637,2.129,6.637,6.637v13.149c0,14.15-0.251,23.042-0.376,24.544
			c-0.375,2.88-2.379,3.757-3.632,3.757h-2.88c-0.375,0-0.501,0.125-0.501,0.375v3.255c0,0.626,0.125,0.877,0.376,0.877
			c1.001,0,6.637-0.375,8.39-0.375c3.632,0,8.641,0.375,9.518,0.375c0.626,0,0.626-0.25,0.626-0.751v-3.005
			c0-0.5,0-0.751-0.626-0.751h-2.63c-1.252,0-2.629-1.378-3.005-4.258c-0.25-1.126-0.751-13.649-0.751-21.163V28.982h0.25
			c2.004,2.254,12.147,15.778,15.152,19.285c1.378,1.628,6.763,8.015,12.523,14.902c5.134,6.136,9.392,11.271,10.269,12.147
			c0.5,0.376,1.753,1.252,2.88,1.252c1.502,0,1.878-1.252,1.878-2.379V44.886z"/>
		<path fill-rule="evenodd" clip-rule="evenodd" d="M163.419,43.634c0-0.877,0.125-15.778,0.125-17.031
			c0.125-2.63,1.252-3.131,4.633-3.131h2.129c0.626,0,0.751-0.375,0.751-0.876V19.59c0-0.376-0.25-0.626-0.751-0.626
			c-1.001,0-7.389,0.375-11.02,0.375c-5.886,0.125-13.649-0.375-14.401-0.375c-0.501,0-0.751,0.25-0.751,0.751v2.88
			c0,0.501,0.125,0.876,0.751,0.876h2.254c5.26,0,6.387,1.252,6.387,2.63c0,1.753,0.25,14.276,0.25,16.279v5.51
			c0,4.257-0.125,20.162-0.25,21.288c-0.25,2.254-2.254,2.38-5.385,2.38h-2.755c-0.501,0-0.751,0.375-0.751,0.751v2.755
			c0,0.626,0.25,1.002,0.751,1.002c0.751,0,8.014-0.375,12.272-0.375c5.635,0,12.146,0.375,13.148,0.375
			c0.626,0,0.751-0.375,0.751-0.877v-3.005c0-0.375-0.125-0.626-0.751-0.626h-1.878c-3.632,0-5.134-1.753-5.385-4.634
			c-0.125-1.878-0.125-16.279-0.125-17.031V43.634z"/>
		<path fill-rule="evenodd" clip-rule="evenodd" d="M288.538,47.14c-0.126,7.639,0,15.027-0.126,21.163
			c0,2.755-1.503,3.256-4.508,3.256h-1.503c-0.501,0-0.751,0.25-0.751,0.626v2.88c0,0.626,0.25,1.002,0.751,1.002
			c0.877,0,7.264-0.375,10.394-0.375c4.133,0,10.895,0.375,11.771,0.375c0.751,0,1.002-0.25,1.002-0.877v-3.005
			c0-0.375-0.251-0.626-0.751-0.626h-3.257c-2.504,0-3.255-1.378-3.506-3.131V54.904v-3.006c0.877-0.25,2.003-0.25,3.256-0.25
			c5.26,0,7.138,2.755,11.646,10.52c1.127,1.878,6.637,12.021,9.017,13.775c2.128-0.125,5.134-0.25,8.014-0.25
			c1.253,0,2.756,0.125,3.882,0.125c1.253,0.125,2.254,0.25,2.505,0.25c0.501,0,0.752-0.375,0.752-0.877v-2.504
			c0-0.751-0.126-1.126-0.627-1.126c-2.254,0-3.882-0.125-5.635-1.378c-2.38-1.753-5.26-5.51-7.013-8.014
			c-5.135-7.263-7.64-11.146-10.52-11.771v-0.25c9.894-3.506,14.776-8.515,14.776-17.156c0-2.88-1.627-6.511-4.383-9.141
			c-3.131-2.755-8.766-4.884-16.279-4.884c-1.627,0-12.522,0.375-14.025,0.375c-2.254,0-10.018-0.375-10.644-0.375
			c-0.501,0-0.751,0.25-0.751,0.626v3.005c0,0.501,0.125,0.876,0.5,0.876h1.252c3.507,0,4.634,1.377,4.76,3.882v12.022V47.14z
			 M298.054,25.727c0-2.254,1.878-2.755,3.757-2.755c5.009,0,8.516,1.127,11.896,3.256c2.254,1.502,4.133,4.883,4.133,8.64
			c0,3.256-2.129,13.024-16.029,13.024c-1.628,0-2.88-0.125-3.757-0.25V25.727z"/>
		<path fill-rule="evenodd" clip-rule="evenodd" d="M356.856,77.194c11.396,0,17.406-8.015,17.406-17.407
			c0-6.261-1.502-9.392-4.007-12.021c-3.13-3.256-7.765-4.633-13.524-6.762c-2.379-0.877-6.888-2.755-8.767-5.135
			c-1.376-1.628-2.003-4.257-2.003-6.136c0-2.254,2.003-7.639,8.891-7.639c3.632,0,6.387,1.252,8.266,3.381
			c2.63,3.005,3.631,7.388,4.383,8.891c0.125,0.375,0.376,0.626,0.751,0.5l2.255-0.5c0.375-0.125,0.5-0.376,0.5-0.751
			c-0.125-1.753-1.252-9.893-1.252-14.025c0-0.626-0.125-1.127-1.127-1.127s-1.377,0-1.628,0.375l-0.501,0.876
			c-0.251,0.626-0.876,0.501-2.129-0.25c-1.503-0.751-4.133-1.628-8.891-1.628c-4.508,0-8.516,1.127-11.771,3.757
			c-2.755,2.379-5.385,6.262-5.385,10.519c0,6.136,1.502,10.144,4.383,12.898c3.757,3.381,9.768,5.635,12.271,6.512
			c6.638,2.504,11.521,5.635,11.521,12.773c0,5.384-6.011,8.515-10.018,8.515c-4.634,0-8.767-2.504-10.646-6.261
			c-2.254-4.132-2.254-6.763-2.254-8.516c0-0.501-0.5-0.751-1.001-0.876l-2.254-0.25c-0.502,0-0.752,0.375-0.877,0.876
			c-0.125,2.003-1.002,12.022-1.377,15.528c-0.126,0.626,0.25,1.127,1.001,1.378c1.002,0.25,1.628,0,1.879-0.626l0.375-1.002
			c0.251-1.002,1.003-0.876,1.879-0.25C346.086,75.065,350.469,77.194,356.856,77.194z"/>
		<path fill-rule="evenodd" clip-rule="evenodd" d="M395.475,43.634c0-0.877,0.126-15.778,0.126-17.031
			c0.125-2.63,1.252-3.131,4.633-3.131h2.129c0.627,0,0.752-0.375,0.752-0.876V19.59c0-0.376-0.25-0.626-0.752-0.626
			c-1.002,0-7.389,0.375-11.02,0.375c-5.886,0.125-13.649-0.375-14.401-0.375c-0.5,0-0.751,0.25-0.751,0.751v2.88
			c0,0.501,0.125,0.876,0.751,0.876h2.254c5.26,0,6.387,1.252,6.387,2.63c0,1.753,0.251,14.276,0.251,16.279v5.51
			c0,4.257-0.126,20.162-0.251,21.288c-0.251,2.254-2.254,2.38-5.385,2.38h-2.755c-0.501,0-0.751,0.375-0.751,0.751v2.755
			c0,0.626,0.25,1.002,0.751,1.002c0.751,0,8.015-0.375,12.272-0.375c5.635,0,12.146,0.375,13.149,0.375
			c0.625,0,0.75-0.375,0.75-0.877v-3.005c0-0.375-0.125-0.626-0.75-0.626h-1.879c-3.632,0-5.135-1.753-5.385-4.634
			c-0.126-1.878-0.126-16.279-0.126-17.031V43.634z"/>
		<path fill-rule="evenodd" clip-rule="evenodd" d="M65.493,115.829c11.491,0,18.386-15.771,18.386-24.488
			c0-5.389-3.17-9.272-8.479-9.272c-10.541,0-18.069,13.551-18.069,23.537C57.33,111.628,61.134,115.829,65.493,115.829z
			 M64.304,112.025c-1.902,0-3.646-1.506-3.646-4.042c0-3.724,1.902-8.559,4.596-12.838c3.962-6.419,8.163-9.43,11.491-9.43
			c2.615,0,4.042,1.981,3.962,4.438C80.708,95.383,72.546,112.025,64.304,112.025z"/>
		<path fill-rule="evenodd" clip-rule="evenodd" d="M193.579,117.839c0-0.876,0.126-15.778,0.126-17.031
			c0.125-2.629,1.252-3.13,4.633-3.13h2.129c0.626,0,0.751-0.375,0.751-0.877v-3.005c0-0.376-0.25-0.626-0.751-0.626
			c-1.001,0-7.388,0.375-11.02,0.375c-5.885,0.125-13.649-0.375-14.401-0.375c-0.5,0-0.751,0.25-0.751,0.751v2.88
			c0,0.501,0.125,0.877,0.751,0.877h2.254c5.259,0,6.386,1.252,6.386,2.629c0,1.753,0.25,14.276,0.25,16.28v5.51
			c0,4.258-0.125,20.162-0.25,21.289c-0.25,2.254-2.254,2.379-5.385,2.379h-2.755c-0.501,0-0.751,0.375-0.751,0.751v2.755
			c0,0.626,0.25,1.001,0.751,1.001c0.751,0,8.015-0.375,12.272-0.375c5.635,0,12.147,0.375,13.149,0.375
			c0.626,0,0.751-0.375,0.751-0.876v-3.005c0-0.375-0.125-0.626-0.751-0.626h-1.879c-3.632,0-5.134-1.753-5.384-4.634
			c-0.126-1.878-0.126-16.279-0.126-17.03V117.839z"/>
		<path fill-rule="evenodd" clip-rule="evenodd" d="M212.587,121.346c-0.125,7.639,0,15.027-0.125,21.163
			c0,2.755-1.503,3.256-4.509,3.256h-1.502c-0.501,0-0.751,0.25-0.751,0.626v2.88c0,0.626,0.25,1.001,0.751,1.001
			c0.876,0,7.263-0.375,10.394-0.375c4.132,0,10.895,0.375,11.771,0.375c0.751,0,1.002-0.25,1.002-0.876v-3.005
			c0-0.375-0.251-0.626-0.751-0.626h-3.256c-2.504,0-3.256-1.378-3.506-3.131V129.11v-3.005c0.876-0.25,2.004-0.25,3.256-0.25
			c5.259,0,7.138,2.755,11.646,10.519c1.126,1.878,6.637,12.021,9.016,13.775c2.129-0.125,5.135-0.25,8.015-0.25
			c1.252,0,2.755,0.125,3.882,0.125c1.252,0.125,2.253,0.25,2.504,0.25c0.501,0,0.751-0.375,0.751-0.876v-2.504
			c0-0.751-0.125-1.127-0.626-1.127c-2.254,0-3.882-0.125-5.635-1.378c-2.379-1.753-5.259-5.51-7.013-8.014
			c-5.134-7.263-7.639-11.145-10.519-11.771v-0.25c9.893-3.506,14.776-8.516,14.776-17.156c0-2.88-1.627-6.512-4.383-9.142
			c-3.13-2.755-8.766-4.884-16.279-4.884c-1.628,0-12.523,0.375-14.025,0.375c-2.254,0-10.018-0.375-10.644-0.375
			c-0.501,0-0.752,0.25-0.752,0.626v3.005c0,0.501,0.125,0.877,0.501,0.877h1.252c3.506,0,4.634,1.377,4.759,3.882v12.022V121.346z
			 M222.824,99.932c0-2.254,1.878-2.755,3.757-2.755c5.009,0,8.516,1.127,11.896,3.256c2.255,1.503,4.133,4.884,4.133,8.641
			c0,3.256-2.129,13.023-16.029,13.023c-1.628,0-2.88-0.125-3.757-0.25V99.932z"/>
		<path fill-rule="evenodd" clip-rule="evenodd" d="M306.592,132.867c0-2.129,2.38-2.63,3.632-2.63h2.129
			c0.376,0,0.627-0.375,0.627-0.751v-3.005c0-0.375-0.251-0.626-0.753-0.626c-0.5,0-6.135,0.25-10.769,0.25
			c-6.763,0-12.898-0.25-13.649-0.25c-0.502,0-0.627,0.25-0.627,0.626v3.005c0,0.376,0.125,0.626,0.627,0.626h3.005
			c3.256,0,6.136,0.876,6.136,3.757v4.633c0,2.505-0.25,4.132-1.878,5.385c-2.004,1.628-6.011,2.755-10.394,2.755
			c-3.506,0-8.516-1.878-12.021-5.635c-4.884-5.135-7.639-12.272-7.639-21.915c0-5.635,2.755-12.272,6.512-16.405
			c4.633-5.009,9.517-6.386,13.398-6.386c5.761,0,9.267,2.504,12.648,6.011c3.005,3.005,5.134,6.888,6.011,8.891
			c0.376,1.001,0.626,1.127,1.002,1.001l2.379-0.751c0.376-0.125,0.501-0.375,0.501-1.002c-0.251-2.254-1.879-13.9-1.879-14.526
			c0-0.876-0.25-1.377-1.377-1.377c-1.002,0-1.378,0.375-1.628,0.877l-0.626,1.127c-0.25,0.375-0.752,0.375-1.753-0.501
			c-2.38-1.753-8.265-4.007-14.275-4.007c-8.892,0-16.53,2.629-22.416,7.639c-6.011,5.259-9.267,12.898-9.267,20.538
			c0,9.768,2.504,16.529,7.513,22.04c5.887,6.512,15.904,9.142,22.416,9.142c8.015,0,14.776-1.753,21.413-5.009
			c0.877-0.375,1.378-0.751,1.378-1.377c0-0.626-0.376-1.377-0.376-2.505V132.867z"/>
		<path fill-rule="evenodd" clip-rule="evenodd" d="M331.028,117.839c0-0.876,0.126-15.778,0.126-17.031
			c0.125-2.629,1.252-3.13,4.634-3.13h2.128c0.626,0,0.752-0.375,0.752-0.877v-3.005c0-0.376-0.251-0.626-0.752-0.626
			c-1.001,0-7.388,0.375-11.02,0.375c-5.886,0.125-13.649-0.375-14.401-0.375c-0.501,0-0.751,0.25-0.751,0.751v2.88
			c0,0.501,0.125,0.877,0.751,0.877h2.255c5.259,0,6.386,1.252,6.386,2.629c0,1.753,0.251,14.276,0.251,16.28v5.51
			c0,4.258-0.126,20.162-0.251,21.289c-0.25,2.254-2.254,2.379-5.384,2.379h-2.755c-0.502,0-0.752,0.375-0.752,0.751v2.755
			c0,0.626,0.25,1.001,0.752,1.001c0.751,0,8.014-0.375,12.271-0.375c5.635,0,12.147,0.375,13.148,0.375
			c0.627,0,0.752-0.375,0.752-0.876v-3.005c0-0.375-0.125-0.626-0.752-0.626h-1.878c-3.632,0-5.134-1.753-5.385-4.634
			c-0.126-1.878-0.126-16.279-0.126-17.03V117.839z"/>
		<path fill-rule="evenodd" clip-rule="evenodd" d="M398.45,119.092c0-5.134-0.251-13.023,0.375-18.784
			c0.251-1.753,0.877-2.629,4.008-2.629h1.253c0.5,0,0.75-0.375,0.75-0.877v-2.629c0-0.751-0.25-1.002-0.876-1.002
			c-0.877,0-5.26,0.375-7.89,0.375c-4.006,0-9.392-0.375-10.268-0.375c-0.626,0-0.877,0.25-0.877,0.626v3.005
			c0,0.626,0.251,0.877,0.877,0.877h2.129c2.129,0,4.007,0.751,4.633,2.254s1.002,8.766,1.002,11.771
			c0.25,4.007,0.376,7.889,0.376,15.027v8.265h-0.502c-1.502-1.628-13.148-16.279-15.402-18.909
			c-2.629-3.131-17.031-21.289-17.406-21.79c-0.501-0.751-1.252-1.002-3.006-1.002c-1.502,0-4.132,0.25-6.136,0.25
			c-1.378,0-3.382-0.125-5.009-0.25c-1.628,0-3.006-0.125-3.256-0.125c-0.501,0-0.752,0.375-0.752,0.751v3.005
			c0,0.501,0.251,0.751,0.752,0.751h1.127c3.506,0,6.637,2.129,6.637,6.637v13.149c0,14.151-0.25,23.042-0.375,24.544
			c-0.377,2.88-2.38,3.757-3.632,3.757h-2.881c-0.376,0-0.501,0.125-0.501,0.375v3.256c0,0.626,0.125,0.876,0.376,0.876
			c1.002,0,6.638-0.375,8.391-0.375c3.631,0,8.64,0.375,9.517,0.375c0.627,0,0.627-0.25,0.627-0.751v-3.006
			c0-0.5,0-0.751-0.627-0.751h-2.629c-1.253,0-2.631-1.378-3.006-4.258c-0.251-1.127-0.751-13.649-0.751-21.163v-17.156h0.25
			c2.004,2.254,12.147,15.779,15.152,19.285c1.377,1.628,6.762,8.014,12.522,14.902c5.135,6.136,9.392,11.271,10.269,12.147
			c0.501,0.375,1.753,1.252,2.88,1.252c1.503,0,1.879-1.252,1.879-2.38V119.092z"/>
		<path d="M92.723,86.346H85.67c-0.396,0-0.591-0.387-0.432-0.942l0.317-1.347c0.159-0.555,0.706-1.825,1.34-1.825h6.895
			c2.377-6.815,4.683-12.361,8.883-17.037c2.219-2.536,6.578-5.389,11.729-5.389c4.597,0,7.132,2.773,7.132,4.676
			c0,2.457-1.585,3.646-3.169,3.646c-2.536,0-3.25-1.426-3.487-3.17c-0.079-0.792-0.872-2.298-3.249-2.298
			c-7.37,0-8.963,10.468-11.578,19.344c0,0,11.014,0.295,20.004,0.295c9.682,0,14.868-0.346,15.906-0.346
			c1.037,0,1.152,0.346,1.152,0.807v2.651c0,0.576-0.115,1.037-0.922,1.037h-5.533c-3.227,0-4.841,1.037-4.841,2.997
			c0,0.922,0.115,2.305,0.461,3.919c0.691,4.149,4.956,17.865,7.031,24.319c1.383,4.38,8.068,24.205,10.719,31.235
			c2.651-5.417,11.641-29.16,12.563-31.812c1.153-3.112,5.533-16.367,7.262-21.438c0.922-2.882,1.614-4.957,1.614-6.57
			c0-1.383-0.807-2.651-3.688-2.651h-2.997c-0.46,0-0.576-0.346-0.576-1.037V82.76c0-0.576,0.116-0.807,0.691-0.807
			c1.038,0,6.339,0.346,13.601,0.346c8.414,0,11.295-0.346,12.333-0.346c0.691,0,0.807,0.23,0.807,0.807v2.881
			c0,0.461-0.116,0.807-0.807,0.807h-3.112c-3.804,0-5.994,1.844-8.184,4.495c-2.997,3.688-12.218,27.316-14.177,32.157
			c-1.383,3.804-16.251,40.456-16.828,41.608c-0.461,0.922-1.037,1.499-1.613,1.499c-0.922,0-1.383-1.153-1.959-2.651
			c-3.688-10.604-13.024-36.883-14.523-41.033l-1.152-3.918c-2.766-8.184-8.184-24.896-9.682-28.354
			c-1.153-2.651-2.306-3.804-4.726-3.804l-10.718-0.103c-2.061,6.419-5.706,19.979-9.668,30.124
			c-4.834,12.363-10.461,21.16-18.941,21.16c-3.17,0-5.706-2.14-5.706-4.676c0-1.823,1.347-3.407,3.408-3.407
			c2.298,0,3.487,2.219,3.725,3.566c0.158,0.792,0.713,1.347,1.347,1.347c3.804,0,8.083-6.657,12.363-21.318L92.723,86.346z"/>
		<path d="M452.249,124.226h17.031c-0.502-1.753-6.387-20.537-6.638-21.539c-0.251-0.751-0.376-1.252-0.751-1.252
			c-0.376,0-0.627,0.375-1.002,1.377C460.513,103.814,452.875,122.974,452.249,124.226z M426.258,117.839v6.262
			c0,0.751,0,15.152,0.126,17.03c0.25,2.88,1.753,4.634,5.385,4.634h1.445c2.129,0,4.132-1.252,5.134-2.63
			c0.877-1.002,7.263-16.029,10.269-22.29c0.877-1.753,8.265-18.784,9.017-20.913c0.25-0.751,1.002-2.129,0.125-2.504
			c-0.251-0.25-0.626-0.876-0.501-1.252c-0.125-0.25,0.125-0.626,1.253-0.876c2.379-0.376,5.886-2.63,7.013-3.631
			c0.25-0.501,0.751-0.877,1.502-0.877s1.002,0.501,1.252,1.378c1.754,5.009,8.14,22.916,9.768,27.925
			c1.879,6.261,7.264,21.038,8.141,22.29c1.628,2.254,3.757,3.381,5.886,3.381h2.379c0.501,0,0.626,0.375,0.626,0.751v2.63
			c0,0.376-0.125,1.127-0.876,1.127c-1.503,0-8.141-0.375-11.021-0.375c-2.379,0-9.768,0.375-11.396,0.375
			c-0.877,0-1.002-0.626-1.002-1.127v-2.63c0-0.375,0.125-0.751,0.627-0.751h2.003c1.503,0,2.004-1.127,2.004-2.129
			c-0.501-2.505-3.882-12.523-4.885-15.403H450.37c-0.501,1.503-4.508,11.896-5.009,13.399c-0.751,2.504-0.376,4.132,2.254,4.132
			h3.131c0.752,0,0.877,0.375,0.877,0.876v2.755c0,0.501-0.125,0.876-0.751,0.876c-1.003,0-7.64-0.375-9.643-0.375
			c-1.557,0-16.906,0-20.73,0c-4.258,0-11.521,0.375-12.271,0.375c-0.502,0-0.752-0.375-0.752-1.001v-2.755
			c0-0.375,0.25-0.751,0.752-0.751h2.754c3.131,0,5.135-0.125,5.385-2.379c0.125-1.127,0.251-17.031,0.251-21.289v-5.51
			c0-2.003-0.251-14.526-0.251-16.28c0-1.377-1.127-2.629-6.386-2.629h-2.255c-0.626,0-0.751-0.375-0.751-0.877v-2.88
			c0-0.501,0.25-0.751,0.751-0.751c0.752,0,8.516,0.501,14.401,0.375c3.632,0,10.019-0.375,11.021-0.375
			c0.501,0,0.751,0.25,0.751,0.626v3.005c0,0.501-0.125,0.877-0.751,0.877h-2.129c-3.382,0-4.509,0.501-4.634,3.13
			C426.384,102.061,426.258,116.963,426.258,117.839z"/>
		<path d="M197.203,19.841v2.88c0,0.5-0.375,0.751-0.876,0.751h-2.88c-1.628,0-3.506,0.251-3.506,1.878
			c0,2.88,2.129,7.764,5.51,18.283c1.002,3.131,5.635,17.657,6.386,19.661h0.376c0.751-2.63,6.887-18.158,7.514-20.036
			c4.758-13.9,6.386-17.281,6.386-18.534c0-0.626-0.5-1.252-2.629-1.252h-1.377c-0.501,0-0.752-0.25-0.752-0.876v-2.88
			c0-0.375,0.251-0.751,0.752-0.751c0.751,0,7.263,0.375,10.143,0.375c2.085,0,17.315,0,19.142,0l28.051-0.125
			c1.252,0,2.879-0.25,3.381-0.25c0.25,0,0.5,0.25,0.751,1.753c0.25,1.127,3.757,11.896,4.008,12.773
			c0.125,0.5,0.125,0.751-0.126,0.876l-2.004,0.876c-0.25,0.125-0.751,0.125-1.127-0.501c-0.25-0.375-6.261-7.389-8.39-9.392
			c-1.503-1.377-3.507-1.878-4.759-1.878l-13.274-0.25V44.51c0.752,0,8.14-0.375,9.142-0.626c3.256-0.876,4.509-2.63,4.509-6.512
			c0-0.501,0.125-0.626,0.626-0.626l2.755,0.125c0.501,0,0.877,0.25,0.752,0.751c-0.251,1.127-0.251,7.764-0.251,8.891
			c0,2.755,0.376,6.637,0.501,8.265c0,0.501-0.25,0.626-0.626,0.626l-2.631,0.25c-0.375,0-0.626,0-0.751-0.5
			c-0.626-3.131-1.377-5.135-4.633-5.886c-3.757-0.877-8.14-0.877-9.392-0.877v4.258c0,4.383,0.251,11.646,0.251,13.274
			c0,5.886,3.631,6.261,9.016,6.261c5.509,0,9.016-0.125,13.274-3.506c1.002-0.751,5.385-6.387,6.638-8.39
			c0.626-0.877,1.251-1.002,1.627-0.751l2.004,1.127c0.25,0.125,0.501,0.501,0.376,0.876l-4.509,13.274
			c-0.25,0.626-0.876,1.252-1.377,1.252c-0.877,0-7.514-0.375-33.811-0.375c-2.254,0-9.142,0.375-10.645,0.375
			c-0.626,0-0.751-0.375-0.751-0.877v-2.88c0-0.5,0.25-0.751,0.876-0.751h1.127c5.886,0,6.261-0.501,6.261-2.254V50.396v-7.764
			c0-6.637-0.125-14.776-0.25-16.029c-0.375-2.63-1.127-3.131-6.136-3.131h-0.984h-0.268h-1.735c-2.379,0-4.133,0.751-5.26,1.878
			c-2.379,2.379-9.142,18.784-10.394,22.04c-1.126,2.629-11.396,27.174-12.397,28.802c-0.375,0.626-1.002,1.001-2.003,1.001
			c-1.002,0-1.628-0.876-2.004-1.878c-2.755-7.388-9.392-25.546-10.394-28.301l-0.876-2.755c-2.128-5.76-5.885-17.156-6.762-18.408
			c-1.001-1.378-2.003-2.38-3.632-2.38h-1.252c-0.5,0-0.626-0.375-0.626-0.751V19.59c0-0.376,0.25-0.626,0.751-0.626
			c0.626,0,7.514,0.375,10.77,0.375c3.005,0,10.644-0.375,11.395-0.375C196.953,18.964,197.203,19.214,197.203,19.841z"/>
		<path fill-rule="evenodd" clip-rule="evenodd" d="M99.37,187.89c0,7.051-0.347,36.849-0.347,39.045
			c0,1.503-0.693,3.121-4.97,3.121h-5.548c-0.693,0-0.809,0.23-0.809,0.809v2.891c0,0.578,0.116,0.809,0.925,0.809
			c1.502,0,5.664-0.347,14.795-0.347c12.368,0,43.221,0.116,46.226,0.347c0.694-3.121,5.317-23.209,5.664-24.018
			c0.116-0.694,0.116,0.206-0.231-0.025l-1.85-0.694c-0.462-0.231-0.694,0-0.925,0.462c-1.618,4.508-8.554,18.378-15.374,19.419
			c-3.583,0.462-24.033,0.231-26.576,0c-0.347-4.739-0.347-29.707-0.347-31.672v-10.957c0-8.091,0.347-25.545,0.347-27.048
			c0-3.352,0.462-4.508,4.045-4.508h6.936c0.925,0,1.156-0.347,1.156-0.925v-2.658c0-0.578-0.116-0.925-1.041-0.925
			c-1.041,0-5.895,0.347-17.107,0.347c-9.594,0-13.755-0.347-15.027-0.347c-0.693,0-0.809,0.231-0.809,0.809v2.543
			c0,0.578,0.116,1.156,0.809,1.156h5.433c3.468,0,4.045,1.156,4.277,4.161c0.116,2.081,0.347,14.333,0.347,21.731V187.89z"/>
		<path fill-rule="evenodd" clip-rule="evenodd" d="M176.194,190.367c0-0.886,0.126-15.949,0.126-17.214
			c0.126-2.658,1.266-3.164,4.684-3.164h2.151c0.633,0,0.76-0.38,0.76-0.886v-3.038c0-0.379-0.253-0.633-0.76-0.633
			c-1.012,0-7.468,0.38-11.138,0.38c-5.949,0.126-13.796-0.38-14.556-0.38c-0.506,0-0.76,0.253-0.76,0.76v2.911
			c0,0.506,0.127,0.886,0.76,0.886h2.278c5.316,0,6.455,1.266,6.455,2.658c0,1.772,0.253,14.429,0.253,16.455v5.569
			c0,4.303-0.126,20.378-0.253,21.518c-0.253,2.278-2.278,2.405-5.443,2.405h-2.784c-0.506,0-0.76,0.379-0.76,0.759v2.785
			c0,0.633,0.253,1.013,0.76,1.013c0.759,0,8.101-0.38,12.404-0.38c5.696,0,12.278,0.38,13.291,0.38c0.633,0,0.76-0.38,0.76-0.887
			v-3.038c0-0.379-0.127-0.632-0.76-0.632h-1.898c-3.671,0-5.189-1.772-5.443-4.684c-0.126-1.898-0.126-16.455-0.126-17.214V190.367
			z"/>
		<path fill-rule="evenodd" clip-rule="evenodd" d="M424.956,197.075c2.911-4.43,17.594-25.062,19.492-26.074
			c1.14-0.633,2.532-1.012,4.557-1.012h1.267c0.506,0,0.759-0.253,0.759-0.886v-2.658c0-0.759-0.253-1.013-0.886-1.013
			c-0.76,0-5.189,0.38-7.468,0.38c-3.797,0-10.126-0.38-10.886-0.38c-0.633,0-0.886,0.38-0.886,0.886v2.785
			c0,0.506,0.253,0.886,0.886,0.886h2.025c2.784,0,2.657,1.645,1.646,3.67c-0.506,1.013-11.013,16.328-12.91,19.492
			c-2.025-3.038-12.531-19.872-13.291-21.011c-0.506-0.76-0.379-2.151,1.898-2.151h1.898c0.76,0,0.887-0.38,0.887-0.886v-2.785
			c0-0.633-0.38-0.886-0.887-0.886c-0.885,0-9.493,0.38-12.276,0.38c-3.038,0-9.62-0.38-10.38-0.38s-1.012,0.38-1.012,0.76v2.784
			c0,0.76,0.252,1.013,0.885,1.013h1.772c1.013,0,3.291,0.252,4.557,1.519c2.024,1.898,17.467,24.555,18.606,26.833v4.557
			c0,7.467,0,12.024-0.127,13.164c-0.126,1.772-0.886,2.532-4.936,2.532h-1.899c-0.506,0-0.759,0.379-0.759,0.759v2.785
			c0,0.759,0.253,1.013,0.886,1.013c0.759,0,8.101-0.38,10.886-0.38c4.177,0,11.265,0.38,12.024,0.38
			c0.759,0,1.013-0.38,1.013-0.887v-3.038c0-0.379-0.254-0.632-0.887-0.632h-1.646c-2.278,0-4.304-0.127-4.556-2.785
			c-0.254-1.519-0.128-4.937-0.254-8.101V197.075z"/>
		<path fill-rule="evenodd" clip-rule="evenodd" d="M189.464,169.103c0,0.759,0,0.886,0.633,0.886h2.405
			c2.405,0,4.81,0.126,5.063,4.43c0.127,1.393,0.38,10.252,0.38,13.417v9.366c0,6.708,0,16.455-0.38,18.227
			c-0.38,1.645-1.519,3.165-3.417,3.165h-3.418c-0.759,0-0.886,0.126-0.886,0.632v2.658c0,0.886,0.126,1.266,1.012,1.266
			c2.152,0,6.708-0.38,10.126-0.38c4.304,0,8.48,0.38,12.784,0.38c8.607,0,14.556-1.266,17.974-3.038
			c4.177-1.899,6.582-7.721,6.582-12.151c0-8.48-5.57-13.29-15.316-16.202v-0.252c7.974-2.912,11.772-4.937,11.772-12.911
			c0-4.683-1.772-8.48-6.582-11.012c-2.912-1.519-8.228-2.152-15.316-2.152c-3.038,0-7.974,0.38-10.759,0.38
			c-2.151,0-10.759-0.38-11.898-0.38c-0.633,0-0.759,0.253-0.759,0.886V169.103z M207.312,194.164c4.05,0,7.721-0.126,12.024,1.392
			c4.81,1.646,8.228,5.57,8.228,12.025c0,8.48-6.456,11.771-12.151,11.771c-6.329,0-8.101-3.544-8.101-9.62V194.164z
			 M207.312,184.798c0-5.316,0-12.278,0.126-13.923c0.127-0.886,0.38-1.519,1.139-1.646c0.76-0.126,1.646-0.126,2.785-0.126
			c2.405,0,7.215,0.886,9.746,2.785c3.164,2.405,3.797,5.569,3.797,8.227s-1.266,5.949-4.684,8.354
			c-2.531,1.646-7.088,2.151-12.91,1.772V184.798z"/>
		<path d="M255.5,172.267v22.151c0.886,0.126,2.152,0.253,3.797,0.253c14.05,0,16.202-9.873,16.202-13.164
			c0-3.797-1.899-7.215-4.177-8.734c-3.418-2.151-6.962-3.291-12.025-3.291C257.399,169.482,255.5,169.989,255.5,172.267z
			 M304.358,196.822h17.215c-0.506-1.772-6.455-20.758-6.708-21.771c-0.254-0.759-0.38-1.266-0.76-1.266s-0.633,0.38-1.013,1.392
			C312.712,176.19,304.992,195.556,304.358,196.822z M351.035,193.911v-7.848v-12.151c-0.126-2.532-1.265-3.923-4.81-3.923h-1.266
			c-0.38,0-0.507-0.38-0.507-0.886v-3.038c0-0.379,0.254-0.633,0.76-0.633c0.633,0,8.48,0.38,10.759,0.38
			c1.519,0,12.53-0.38,14.177-0.38c7.595,0,13.29,2.152,16.454,4.937c2.784,2.658,4.43,6.329,4.43,9.24
			c0,8.733-4.936,13.796-14.936,17.34c2.911,0.886,5.443,4.81,10.633,12.151c1.772,2.532,4.683,6.329,7.088,8.101
			c1.772,1.266,3.418,1.393,5.695,1.393c0.507,0,0.634,0.379,0.634,1.139v2.531c0,0.507-0.253,0.887-0.76,0.887
			c-0.254,0-1.266-0.127-2.531-0.254c-1.14,0-2.659-0.126-3.924-0.126c-2.911,0-5.949,0.126-8.101,0.253
			c-2.405-1.772-7.975-12.024-9.113-13.923c-4.557-7.847-6.456-10.632-11.772-10.632c-1.265,0-2.404,0-3.29,0.253v3.038v13.67
			c0.253,1.772,1.013,3.165,3.544,3.165h3.291c0.506,0,0.759,0.253,0.759,0.632v3.038c0,0.633-0.253,0.887-1.013,0.887
			c-0.886,0-7.721-0.38-11.897-0.38c-2.132,0-4.987,0.087-8.169,0.285c-1.042,0.02-1.63,0.025-2.672,0.024
			c-3.464-0.004-6.771-0.31-8.875-0.31c-2.404,0-9.873,0.38-11.519,0.38c-0.886,0-1.012-0.633-1.012-1.14v-2.658
			c0-0.379,0.126-0.759,0.633-0.759h2.024c1.52,0,2.025-1.14,2.025-2.152c-0.506-2.531-3.924-12.657-4.937-15.568H302.46
			c-0.507,1.519-4.558,12.024-5.063,13.543c-0.76,2.531-0.38,4.177,2.278,4.177h3.164c0.76,0,0.886,0.379,0.886,0.886v2.784
			c0,0.507-0.126,0.887-0.759,0.887c-0.43,0-7.482-0.289-12.269-0.304c-4.299-0.014-6.696,0.167-11.021,0.177
			c-2.404-1.772-7.975-12.024-9.113-13.923c-4.557-7.847-6.455-10.632-11.771-10.632c-1.266,0-2.405,0-3.291,0.253v3.038v13.67
			c0.253,1.772,1.013,3.165,3.544,3.165h3.291c0.507,0,0.759,0.253,0.759,0.632v3.038c0,0.633-0.252,0.887-1.012,0.887
			c-0.887,0-7.721-0.38-11.898-0.38c-3.165,0-9.62,0.38-10.506,0.38c-0.506,0-0.759-0.38-0.759-1.013v-2.912
			c0-0.379,0.253-0.632,0.759-0.632h1.519c3.038,0,4.557-0.507,4.557-3.292c0.126-6.202,0-13.67,0.126-21.391v-7.848v-12.151
			c-0.126-2.532-1.266-3.923-4.81-3.923h-1.266c-0.379,0-0.506-0.38-0.506-0.886v-3.038c0-0.379,0.253-0.633,0.76-0.633
			c0.633,0,8.48,0.38,10.759,0.38c1.519,0,12.531-0.38,14.176-0.38c7.595,0,13.29,2.152,16.454,4.937
			c2.785,2.658,4.431,6.329,4.431,9.24c0,8.733-4.937,13.796-14.937,17.34c2.912,0.886,5.443,4.81,10.633,12.151
			c1.772,2.532,4.684,6.329,7.088,8.101c0.785-0.278,1.281-0.764,1.646-1.266c0.886-1.013,7.341-16.202,10.379-22.53
			c0.886-1.772,8.354-18.986,9.113-21.138c0.254-0.759,1.013-2.151,0.126-2.531c-0.253-0.253-0.633-0.886-0.505-1.266
			c-0.128-0.253,0.126-0.633,1.266-0.886c2.404-0.38,5.948-2.658,7.088-3.67c0.252-0.506,0.759-0.886,1.519-0.886
			c0.759,0,1.013,0.506,1.266,1.392c1.771,5.063,8.228,23.163,9.873,28.227c1.898,6.328,7.341,21.264,8.228,22.53
			c1.646,2.278,3.797,3.418,5.949,3.418h1.742c3.037,0,4.557-0.507,4.557-3.292C351.035,209.1,350.909,201.632,351.035,193.911z
			 M360.655,172.267v22.151c0.886,0.126,2.151,0.253,3.797,0.253c14.05,0,16.201-9.873,16.201-13.164
			c0-3.797-1.898-7.215-4.177-8.734c-3.417-2.151-6.961-3.291-12.024-3.291C362.553,169.482,360.655,169.989,360.655,172.267z"/>
		<path d="M406.031,18.777c0.156-0.111,0.108-0.112,0.487-0.07c1.949,0.217,9.056,0.883,22.812,0.883h5.01
			c4.093,0,8.5-0.167,13.272-0.365c2.399-0.068,17.109,0.114,20.114,0.114c2.755,0,11.271-0.375,12.147-0.375
			c0.5,0,0.876,0.25,0.876,0.876v2.755c0,0.501-0.125,0.876-0.876,0.876h-1.879c-2.254,0-2.379,1.377-1.878,2.129
			c0.751,1.127,11.146,17.782,13.148,20.788c1.879-3.13,12.272-18.283,12.772-19.285c1.002-2.004,1.128-3.632-1.627-3.632h-2.004
			c-0.626,0-0.877-0.375-0.877-0.876v-2.755c0-0.501,0.251-0.876,0.877-0.876c0.752,0,7.013,0.375,10.77,0.375
			c2.254,0,6.638-0.375,7.388-0.375c0.626,0,0.878,0.25,0.878,1.002v2.629c0,0.626-0.252,0.876-0.752,0.876h-1.252
			c-2.004,0-3.382,0.376-4.509,1.002c-1.878,1.002-16.405,21.414-19.284,25.796V60.79c0.125,3.131,0,6.512,0.25,8.015
			c0.25,2.63,2.254,2.755,4.508,2.755h1.628c0.626,0,0.877,0.25,0.877,0.626v3.005c0,0.501-0.251,0.877-1.002,0.877
			s-7.765-0.375-11.896-0.375c-2.755,0-10.019,0.375-10.77,0.375c-0.626,0-0.876-0.25-0.876-1.002v-2.755
			c0-0.375,0.25-0.751,0.751-0.751h1.878c4.008,0,4.759-0.752,4.884-2.505c0.125-1.127,0.125-5.635,0.125-13.024v-4.508
			c-1.126-2.254-16.404-24.669-18.408-26.548c-1.06-1.06-2.837-1.402-3.965-1.482c0.744,3.394,1.755,7.841,2.154,9.998
			c0.125,0.5-0.126,0.751-0.626,1.001l-2.129,0.626c-0.752,0.25-1.127,0.125-1.378-0.501c-1.502-3.131-3.631-7.264-6.261-9.643
			c-3.131-1.127-12.292-1.252-14.546-1.252v21.038c0,13.149,0,22.541,0.125,23.542c0.25,2.004,0.877,3.256,2.881,3.256h4.758
			c0.627,0,0.877,0.375,0.877,1.126v2.63c0,0.376-0.25,0.751-0.877,0.751c-0.876,0-8.64-0.375-12.772-0.375
			c-3.507,0-11.646,0.375-12.648,0.375c-0.751,0-1.001-0.375-1.001-1.127v-2.504c0-0.626,0.25-0.876,0.751-0.876h5.009
			c1.878,0,2.755-1.002,2.88-2.004c0.376-4.759,0.376-11.396,0.376-18.909V23.723c-2.379,0-9.411-0.126-14.044,1.126
			c-3.131,2.379-5.761,6.387-7.389,9.643c-0.25,0.501-0.626,0.877-1.127,0.626l-2.255-0.877c-0.626-0.25-0.626-0.751-0.5-1.252
			c0.724-2.275,2.899-9.997,3.917-13.786C405.857,19.004,405.876,18.885,406.031,18.777z"/>
	</g>
</g>
</svg>
